HIERARCHY
ROOT pelvis
{
	OFFSET 0.003123 -0.351407 0.012037
	CHANNELS 6 Xposition Yposition Zposition Zrotation Yrotation Xrotation 
	JOINT left_hip
	{
		OFFSET 0.058189 -0.092763 -0.026001
		CHANNELS 3 Zrotation Yrotation Xrotation
		JOINT left_knee
		{
			OFFSET 0.054695 -0.378753 -0.009396
			CHANNELS 3 Zrotation Yrotation Xrotation
			JOINT left_ankle
			{
				OFFSET -0.043453 -0.403059 -0.031876
				CHANNELS 3 Zrotation Yrotation Xrotation
				JOINT left_foot
				{
					OFFSET 0.047257 -0.057997 0.118216
					CHANNELS 3 Zrotation Yrotation Xrotation
					End Site
					{
						OFFSET 0.000000 0.000000 0.000000
					}
				}
			}
		}
	}
	JOINT right_hip
	{
		OFFSET -0.063267 -0.103908 -0.021250
		CHANNELS 3 Zrotation Yrotation Xrotation
		JOINT right_knee
		{
			OFFSET -0.044210 -0.362380 -0.016824
			CHANNELS 3 Zrotation Yrotation Xrotation
			JOINT right_ankle
			{
				OFFSET 0.015417 -0.410728 -0.020192
				CHANNELS 3 Zrotation Yrotation Xrotation
				JOINT right_foot
				{
					OFFSET -0.038812 -0.058328 0.119049
					CHANNELS 3 Zrotation Yrotation Xrotation
					End Site
					{
						OFFSET 0.000000 0.000000 0.000000
					}
				}
			}
		}
	}
	JOINT spine_1
	{
		OFFSET -0.002763 0.109891 -0.027618
		CHANNELS 3 Zrotation Yrotation Xrotation
		JOINT spine_2
		{
			OFFSET 0.009448 0.131853 -0.005940
			CHANNELS 3 Zrotation Yrotation Xrotation
			JOINT spine_3
			{
				OFFSET -0.011330 0.052235 0.028447
				CHANNELS 3 Zrotation Yrotation Xrotation
				JOINT neck
				{
					OFFSET -0.012164 0.165167 -0.031615
					CHANNELS 3 Zrotation Yrotation Xrotation
					JOINT head
					{
						OFFSET 0.024783 0.160452 0.020737
						CHANNELS 3 Zrotation Yrotation Xrotation
						End Site
						{
							OFFSET 0.000000 0.000000 0.000000
						}
					}
				}
				JOINT left_collar
				{
					OFFSET 0.046364 0.084944 -0.007220
					CHANNELS 3 Zrotation Yrotation Xrotation
					JOINT left_shoulder
					{
						OFFSET 0.119239 0.057728 -0.015461
						CHANNELS 3 Zrotation Yrotation Xrotation
						JOINT left_elbow
						{
							OFFSET 0.254123 -0.072151 -0.042459
							CHANNELS 3 Zrotation Yrotation Xrotation
							JOINT left_wrist
							{
								OFFSET 0.251987 0.023221 -0.002472
								CHANNELS 3 Zrotation Yrotation Xrotation
								JOINT left_index_1
								{
									OFFSET 0.101902 -0.008688 0.019351
									CHANNELS 3 Zrotation Yrotation Xrotation
									JOINT left_index_2
									{
										OFFSET 0.030149 -0.011154 0.001151
										CHANNELS 3 Zrotation Yrotation Xrotation
										JOINT left_index_3
										{
											OFFSET 0.006504 -0.021577 -0.002433
											CHANNELS 3 Zrotation Yrotation Xrotation
											End Site
											{
												OFFSET 0.000000 0.000000 0.000000
											}
										}
									}
								}
								JOINT left_middle_1
								{
									OFFSET 0.109398 -0.006328 -0.003981
									CHANNELS 3 Zrotation Yrotation Xrotation
									JOINT left_middle_2
									{
										OFFSET 0.026472 -0.015218 -0.004641
										CHANNELS 3 Zrotation Yrotation Xrotation
										JOINT left_middle_3
										{
											OFFSET 0.005022 -0.023347 -0.001911
											CHANNELS 3 Zrotation Yrotation Xrotation
											End Site
											{
												OFFSET 0.000000 0.000000 0.000000
											}
										}
									}
								}
								JOINT left_pinky_1
								{
									OFFSET 0.084047 -0.014539 -0.043750
									CHANNELS 3 Zrotation Yrotation Xrotation
									JOINT left_pinky_2
									{
										OFFSET 0.012124 -0.014448 -0.005375
										CHANNELS 3 Zrotation Yrotation Xrotation
										JOINT left_pinky_3
										{
											OFFSET 0.003798 -0.018853 0.000167
											CHANNELS 3 Zrotation Yrotation Xrotation
											End Site
											{
												OFFSET 0.000000 0.000000 0.000000
											}
										}
									}
								}
								JOINT left_ring_1
								{
									OFFSET 0.097444 -0.009268 -0.027345
									CHANNELS 3 Zrotation Yrotation Xrotation
									JOINT left_ring_2
									{
										OFFSET 0.023561 -0.016057 -0.001895
										CHANNELS 3 Zrotation Yrotation Xrotation
										JOINT left_ring_3
										{
											OFFSET 0.004257 -0.023548 0.000814
											CHANNELS 3 Zrotation Yrotation Xrotation
											End Site
											{
												OFFSET 0.000000 0.000000 0.000000
											}
										}
									}
								}
								JOINT left_thumb_1
								{
									OFFSET 0.040636 -0.017977 0.025611
									CHANNELS 3 Zrotation Yrotation Xrotation
									JOINT left_thumb_2
									{
										OFFSET 0.021637 -0.017639 0.011623
										CHANNELS 3 Zrotation Yrotation Xrotation
										JOINT left_thumb_3
										{
											OFFSET 0.024002 -0.008356 0.006548
											CHANNELS 3 Zrotation Yrotation Xrotation
											End Site
											{
												OFFSET 0.000000 0.000000 0.000000
											}
										}
									}
								}
							}
						}
					}
				}
				JOINT right_collar
				{
					OFFSET -0.047695 0.084339 -0.013400
					CHANNELS 3 Zrotation Yrotation Xrotation
					JOINT right_shoulder
					{
						OFFSET -0.102578 0.053524 -0.012669
						CHANNELS 3 Zrotation Yrotation Xrotation
						JOINT right_elbow
						{
							OFFSET -0.271150 -0.036492 -0.026467
							CHANNELS 3 Zrotation Yrotation Xrotation
							JOINT right_wrist
							{
								OFFSET -0.249267 -0.004533 -0.015325
								CHANNELS 3 Zrotation Yrotation Xrotation
								JOINT right_index_1
								{
									OFFSET -0.099881 -0.011783 0.019600
									CHANNELS 3 Zrotation Yrotation Xrotation
									JOINT right_index_2
									{
										OFFSET -0.030148 -0.011154 0.001151
										CHANNELS 3 Zrotation Yrotation Xrotation
										JOINT right_index_3
										{
											OFFSET -0.006505 -0.021577 -0.002432
											CHANNELS 3 Zrotation Yrotation Xrotation
											End Site
											{
												OFFSET 0.000000 0.000000 0.000000
											}
										}
									}
								}
								JOINT right_middle_1
								{
									OFFSET -0.107376 -0.009422 -0.003734
									CHANNELS 3 Zrotation Yrotation Xrotation
									JOINT right_middle_2
									{
										OFFSET -0.026472 -0.015218 -0.004641
										CHANNELS 3 Zrotation Yrotation Xrotation
										JOINT right_middle_3
										{
											OFFSET -0.005022 -0.023347 -0.001911
											CHANNELS 3 Zrotation Yrotation Xrotation
											End Site
											{
												OFFSET 0.000000 0.000000 0.000000
											}
										}
									}
								}
								JOINT right_pinky_1
								{
									OFFSET -0.082027 -0.017634 -0.043503
									CHANNELS 3 Zrotation Yrotation Xrotation
									JOINT right_pinky_2
									{
										OFFSET -0.012123 -0.014448 -0.005374
										CHANNELS 3 Zrotation Yrotation Xrotation
										JOINT right_pinky_3
										{
											OFFSET -0.003798 -0.018852 0.000167
											CHANNELS 3 Zrotation Yrotation Xrotation
											End Site
											{
												OFFSET 0.000000 0.000000 0.000000
											}
										}
									}
								}
								JOINT right_ring_1
								{
									OFFSET -0.095423 -0.012362 -0.027099
									CHANNELS 3 Zrotation Yrotation Xrotation
									JOINT right_ring_2
									{
										OFFSET -0.023561 -0.016057 -0.001895
										CHANNELS 3 Zrotation Yrotation Xrotation
										JOINT right_ring_3
										{
											OFFSET -0.004257 -0.023548 0.000816
											CHANNELS 3 Zrotation Yrotation Xrotation
											End Site
											{
												OFFSET 0.000000 0.000000 0.000000
											}
										}
									}
								}
								JOINT right_thumb_1
								{
									OFFSET -0.038613 -0.021074 0.025861
									CHANNELS 3 Zrotation Yrotation Xrotation
									JOINT right_thumb_2
									{
										OFFSET -0.021636 -0.017639 0.011623
										CHANNELS 3 Zrotation Yrotation Xrotation
										JOINT right_thumb_3
										{
											OFFSET -0.024004 -0.008353 0.006547
											CHANNELS 3 Zrotation Yrotation Xrotation
											End Site
											{
												OFFSET 0.000000 0.000000 0.000000
											}
										}
									}
								}
							}
						}
					}
				}
			}
		}
	}
}
MOTION
Frames: 7
Frame Time: 0.050000
0.008183 0.940456 -0.058807 -2.127209 -5.151309 -5.047099 8.265941 0.960031 12.339921 3.353320 -0.195722 -0.807707 -2.146073 -0.788638 4.623384 0.000000 0.000000 0.000000 -3.396505 -0.559793 8.471642 -0.702853 0.209857 4.073405 -1.038722 -2.891185 1.239482 0.000000 0.000000 0.000000 5.034154 -1.463104 14.890595 -12.624148 -3.419885 -31.706049 6.202019 0.110164 39.109046 8.408765 -0.083271 -7.781273 0.000000 0.000000 0.000000 -0.707173 8.253747 -4.220399 -54.785690 -11.456205 -7.416750 -42.108029 -13.364640 6.748230 10.475138 -3.326217 25.069022 -9.685071 3.700157 1.124579 14.533865 -1.072420 8.149894 0.000000 0.000000 0.000000 -11.284132 0.584799 -2.192794 5.405630 -0.491353 6.683673 0.000000 0.000000 0.000000 26.507132 -11.379130 -1.242301 -9.211303 0.611525 -2.233375 0.000000 0.000000 0.000000 2.006913 -3.491703 -1.983087 -3.899329 0.657519 5.263739 0.000000 0.000000 0.000000 4.932961 10.270068 8.542607 -5.090866 -7.562023 -0.358259 0.000000 0.000000 0.000000 -13.716513 0.070363 1.327272 19.879486 38.253060 -2.091326 177.438829 68.235878 170.558686 -10.968669 5.402982 -0.153474 7.150497 -2.068257 0.883565 -6.362665 0.825466 -0.220440 0.000000 0.000000 0.000000 15.544723 3.709684 -3.723067 -5.361477 0.362628 0.776733 0.000000 0.000000 0.000000 -11.826870 10.476673 -8.935952 -0.985572 -0.043884 0.214672 0.000000 0.000000 0.000000 8.067535 5.896585 -3.683264 -5.700789 0.030017 -2.040171 0.000000 0.000000 0.000000 -10.368529 -6.005295 -0.380842 9.508726 2.588339 1.825802 0.000000 0.000000 0.000000 
0.007741 0.940456 -0.056168 -1.987005 -5.039541 -4.679885 8.265000 0.939352 12.230719 3.364613 -0.235988 -0.514140 -2.466397 -2.098331 3.709140 0.000000 0.000000 0.000000 -3.323008 -0.535771 8.052679 -1.017676 0.250776 4.404226 -1.162187 -3.080345 1.166692 0.000000 0.000000 0.000000 5.060418 -1.409185 14.326482 -12.397727 -3.815390 -32.940851 6.039849 0.282619 41.098263 8.380844 -0.000756 -8.301745 0.000000 0.000000 0.000000 -1.094500 8.306308 -4.308324 -54.269229 -11.308691 -7.589746 -42.285248 -13.824296 7.039749 10.556524 -4.104236 23.803362 -11.104369 6.181951 1.752127 20.281750 -3.092234 4.512705 0.000000 0.000000 0.000000 -10.558392 0.355551 -2.094107 5.295141 -0.330850 7.413024 0.000000 0.000000 0.000000 29.384780 -11.970117 -1.399980 -15.383092 1.656061 1.595096 0.000000 0.000000 0.000000 1.122465 -0.864237 -0.687619 -1.249394 0.009315 1.457138 0.000000 0.000000 0.000000 5.159128 10.006380 8.081920 -8.248329 -4.371579 1.550633 0.000000 0.000000 0.000000 -13.872253 -0.883217 0.911761 16.644812 38.034716 -2.804879 -170.442833 63.841937 -169.820339 -12.337708 5.495705 -4.147455 8.814597 -2.926712 1.093725 -6.796448 0.451696 0.784037 0.000000 0.000000 0.000000 18.384821 2.707799 -3.441833 -5.921653 0.295415 -0.037837 0.000000 0.000000 0.000000 -9.302877 9.529104 -9.071875 1.681054 0.506546 -2.260267 0.000000 0.000000 0.000000 9.297110 5.477760 -3.332081 -2.722580 0.350445 -3.828836 0.000000 0.000000 0.000000 -8.828010 -3.920584 -1.903398 5.721683 -1.480180 1.935590 0.000000 0.000000 0.000000 
0.007800 0.940295 -0.056168 -1.974022 -6.016079 -4.616437 8.065146 1.031259 12.563933 3.530409 -0.247324 -0.586471 -2.259646 -1.973093 3.418116 0.000000 0.000000 0.000000 -3.368073 -0.414353 6.863308 -1.183081 0.350303 6.060126 -0.991057 -2.445838 0.700456 0.000000 0.000000 0.000000 5.123250 -1.407734 14.252569 -12.737788 -3.377493 -31.565437 5.700642 -0.483330 39.525757 8.067926 -0.173214 -7.311681 0.000000 0.000000 0.000000 -1.573896 9.234750 -4.837507 -53.762853 -10.640261 -7.308910 -42.806091 -14.420320 7.471577 10.360156 -2.701713 24.731692 -10.976469 5.664037 1.616970 20.142613 -3.149027 4.036374 0.000000 0.000000 0.000000 -10.559122 0.058226 -2.219715 5.460676 -0.484883 6.421031 0.000000 0.000000 0.000000 28.362963 -11.268377 -0.640001 -8.577484 0.425954 -2.557461 0.000000 0.000000 0.000000 1.221839 -0.670659 -0.544340 1.241488 -0.194401 0.894424 0.000000 0.000000 0.000000 5.725515 10.361301 8.382987 -8.033176 -5.258167 1.272692 0.000000 0.000000 0.000000 -14.455070 -0.037539 1.494706 13.404419 38.396531 -3.786545 -157.630102 60.461195 -147.546065 -12.649011 4.880398 -8.906410 6.850929 -3.297644 1.013632 -0.474590 0.391849 -3.241299 0.000000 0.000000 0.000000 18.567422 3.355198 -3.406425 -2.816101 0.165825 -2.224400 0.000000 0.000000 0.000000 -5.922975 9.350788 -10.619799 -1.246620 0.354330 -1.478667 0.000000 0.000000 0.000000 12.252904 6.127494 -3.439880 -5.421555 0.225197 -4.572747 0.000000 0.000000 0.000000 -10.499852 -2.694560 -4.311687 8.806214 -5.062680 3.808759 0.000000 0.000000 0.000000 
0.007476 0.940295 -0.056168 -2.057215 -5.289828 -5.053413 8.337340 0.966020 12.420450 3.521922 -0.297830 -0.182989 -2.562435 -2.147356 3.903199 0.000000 0.000000 0.000000 -3.146347 -0.521210 7.671864 -1.220131 0.337002 5.736064 -1.220505 -2.963098 0.812800 0.000000 0.000000 0.000000 4.954857 -1.458308 14.905935 -12.550920 -3.441213 -31.710802 5.610681 -0.864893 39.528318 8.172493 -0.179225 -7.335965 0.000000 0.000000 0.000000 -1.385450 8.128526 -4.235456 -53.776321 -11.089012 -7.269437 -42.607539 -14.659059 7.556686 10.436697 -2.819312 24.218620 -10.468833 5.855050 1.715169 20.591353 -3.272907 3.696087 0.000000 0.000000 0.000000 -10.282972 0.167755 -2.111402 4.525842 0.260504 9.806923 0.000000 0.000000 0.000000 27.681044 -11.054577 -0.553492 -8.544119 0.351591 -2.851153 0.000000 0.000000 0.000000 0.836857 -0.565959 -0.531290 0.648649 -0.187909 0.266962 0.000000 0.000000 0.000000 5.784348 9.880191 7.828557 -7.905753 -4.704171 1.362780 0.000000 0.000000 0.000000 -14.633408 -1.235407 1.045819 11.861601 39.010326 -4.144046 -150.514283 57.604136 -132.759682 -13.940119 4.015339 -13.503780 7.076092 -3.386273 0.912169 -0.101069 -0.384133 -0.366997 0.000000 0.000000 0.000000 19.028018 3.460404 -3.215587 -0.786882 0.062635 -3.169461 0.000000 0.000000 0.000000 -3.669743 8.778466 -10.741511 -0.132521 0.871763 -2.887726 0.000000 0.000000 0.000000 13.449068 5.806046 -2.973337 -4.450640 0.748684 -6.885636 0.000000 0.000000 0.000000 -12.332443 -3.298258 -5.220492 11.550455 -4.113807 4.070627 0.000000 0.000000 0.000000 
0.006799 0.940134 -0.053528 -2.209889 -6.318938 -5.131315 8.298268 1.059093 12.954180 3.525735 -0.219425 -0.801550 -2.153635 -0.453128 5.203826 0.000000 0.000000 0.000000 -3.094797 -0.525556 7.838414 -1.270277 0.335273 5.639186 -0.826663 -2.088662 0.644211 0.000000 0.000000 0.000000 4.987530 -1.390386 14.195040 -12.342576 -3.730329 -32.498301 5.834641 -0.115213 40.555215 8.129940 -0.330857 -6.725808 0.000000 0.000000 0.000000 -1.398695 7.826418 -4.083140 -53.953979 -11.104454 -7.321432 -42.200804 -13.722949 7.004991 10.585367 -3.900642 24.394369 -9.724908 4.550739 1.386875 16.147681 -1.737833 7.052986 0.000000 0.000000 0.000000 -10.267610 -1.210714 -2.647095 4.373167 0.285105 10.379368 0.000000 0.000000 0.000000 28.724455 -12.371986 -2.055646 -13.249487 1.311012 0.986537 0.000000 0.000000 0.000000 1.580852 -1.867649 -1.163378 -2.479540 0.332245 4.137943 0.000000 0.000000 0.000000 5.497285 10.173245 8.201690 -5.749534 -7.291871 -0.059775 0.000000 0.000000 0.000000 -14.720193 -1.496776 0.938528 11.034441 40.186780 -4.488643 -144.550235 55.312196 -120.120288 -14.452083 2.592256 -17.248235 8.194809 -4.587168 1.057221 1.146451 0.399348 -6.243057 0.000000 0.000000 0.000000 23.131203 4.038379 -3.260217 -6.004035 0.073924 -5.142766 0.000000 0.000000 0.000000 0.872753 9.328175 -12.186432 -7.632845 0.667683 -2.311461 0.000000 0.000000 0.000000 15.769414 6.862320 -3.102793 -7.118217 0.600451 -7.561509 0.000000 0.000000 0.000000 -10.746245 -1.825643 -5.311712 8.890285 -5.173924 4.106541 0.000000 0.000000 0.000000 
0.005916 0.939812 -0.050888 -2.262547 -7.357561 -5.045258 8.149108 1.188855 13.676765 3.763230 -0.212166 -1.051505 -1.885409 -0.435426 4.613525 0.000000 0.000000 0.000000 -3.154030 -0.494583 7.793645 -1.291095 0.332072 5.579507 -0.472455 -1.233074 0.408911 0.000000 0.000000 0.000000 4.825536 -1.461915 14.952137 -12.255359 -3.897955 -32.969797 6.131528 0.443328 40.262201 8.084214 -0.458573 -6.101579 0.000000 0.000000 0.000000 -1.372348 8.397335 -4.376270 -54.188964 -10.932859 -7.287004 -42.244243 -13.163170 6.721785 10.494668 -4.259564 24.910084 -9.976286 4.024421 1.214264 17.089050 -1.817776 7.728024 0.000000 0.000000 0.000000 -9.923895 -1.438852 -2.682263 2.316128 0.705073 9.623589 0.000000 0.000000 0.000000 29.024416 -12.546002 -2.151754 -15.106201 1.332885 -0.395669 0.000000 0.000000 0.000000 1.068919 -2.478449 -1.526543 -0.949495 0.162554 4.977302 0.000000 0.000000 0.000000 5.758898 10.240278 8.242726 -8.105881 -5.127338 1.345145 0.000000 0.000000 0.000000 -14.908502 -1.080282 1.145984 9.479305 40.694078 -4.966078 -136.645614 51.278176 -102.311445 -14.287896 1.171021 -23.688960 3.488050 -4.253085 0.744201 7.586114 1.038564 -5.836019 0.000000 0.000000 0.000000 18.512114 3.597405 -2.776451 -0.143661 0.579678 -7.371892 0.000000 0.000000 0.000000 0.485832 9.636821 -12.978764 -8.163063 0.637475 -1.728528 0.000000 0.000000 0.000000 13.187325 7.338630 -3.362697 -5.144194 0.997413 -7.244090 0.000000 0.000000 0.000000 -11.936518 -1.578337 -6.041440 6.290764 -6.063614 4.427006 0.000000 0.000000 0.000000 
0.004915 0.939328 -0.042969 -2.386629 -6.215102 -3.688618 8.442595 1.066230 13.492040 3.866899 -0.127051 -1.634424 -2.282174 -2.665380 2.605290 0.000000 0.000000 0.000000 -2.949522 -0.558975 8.062565 -1.059768 0.218986 3.756629 -0.759875 -2.136549 0.902776 0.000000 0.000000 0.000000 4.934977 -1.304444 13.258112 -12.259701 -3.675073 -32.194008 5.769873 -0.204831 41.146687 8.285186 -0.437147 -6.398228 0.000000 0.000000 0.000000 -1.494500 7.910732 -4.141844 -54.169579 -10.661973 -7.431714 -42.309376 -14.626331 7.515183 10.581842 -3.847943 24.293223 -10.306786 5.496670 1.615473 17.723419 -2.162069 6.682349 0.000000 0.000000 0.000000 -10.449576 -0.242869 -2.305311 3.993011 0.318088 9.768964 0.000000 0.000000 0.000000 28.467129 -11.031705 -0.383744 -13.980460 1.064570 -0.634468 0.000000 0.000000 0.000000 1.355727 -0.753387 -0.596604 -0.690627 0.139103 4.239769 0.000000 0.000000 0.000000 6.087260 9.936577 7.782941 -8.456410 -5.152004 1.441004 0.000000 0.000000 0.000000 -14.456843 -1.939296 0.742725 7.262170 41.416351 -5.606640 -128.483833 45.922287 -82.346901 -15.150092 0.037989 -29.596226 1.310393 -4.669477 0.739031 7.673239 2.046483 -8.284809 0.000000 0.000000 0.000000 17.640675 4.584152 -2.827191 0.607990 1.255646 -10.356043 0.000000 0.000000 0.000000 2.184764 10.815092 -14.421188 -10.157025 0.704327 -1.818666 0.000000 0.000000 0.000000 15.557590 9.065485 -3.494949 -11.370468 0.592349 -9.353309 0.000000 0.000000 0.000000 -17.800343 -0.925781 -9.358668 12.653837 -6.343986 5.898052 0.000000 0.000000 0.000000 
